<svg viewBox="57.887 210.224 458.313 143.829" fill="#FAC710" xmlns="http://www.w3.org/2000/svg">
    <path d="m233.592 227.043 1.034-4.296c.763-3.174-.457-6.157-2.726-6.663-2.27-.506-4.728 1.657-5.491 4.831l-1.034 4.297c-34.884-5.225-68.727 6.224-78.535 36.696 4.14-2.605 9.715-3.614 15.382-2.35 8.82 1.965 14.924 8.777 14.935 16.012l.731.163c3.345-6.44 11.906-9.935 20.686-7.977 5.684 1.266 8.807 4.551 11.333 8.66l-1.613 7.515c-1.569 4.735 5.355 8.76 7.987 1.366l2.085-7.143c4.142-2.62 10.922-3.646 16.603-2.38 8.82 1.966 14.923 8.778 14.935 16.013l.73.163c3.346-6.44 11.906-9.935 20.687-7.978 5.67 1.265 10.219 4.533 12.748 8.63 4.185-27.549-16.735-55.48-50.477-65.559Z"/>
    <path d="M70.627 345.181q-.548 1.37-2.603 1.439-2.055.068-4.384-1.713-1.644-1.644-2.124-2.534-.479-.891.48-3.014.959-2.124 3.288-7.467.548-3.288 1.918-6.644 1.37-3.357 2.055-4.727.548-1.918 2.26-6.37 1.713-4.453 3.973-9.933 2.261-5.48 4.316-10.343 2.055-4.864 3.014-7.33 2.329-5.48 4.795-11.508 2.466-6.028 6.713-15.207.548-1.37.274-2.877-.274-1.507-2.603-1.507-1.37-1.507-1.507-3.082-.137-1.576 1.37-2.261l9.042-3.425q6.439-1.507 13.22-.89 6.782.616 12.81 3.767 6.576 3.836 9.384 8.015 2.809 4.178 2.946 8.425.137 4.247-1.37 8.083-1.096 2.877-4.179 6.302-3.082 3.425-7.124 6.85-4.041 3.425-8.357 6.234-4.315 2.808-8.014 4.315-3.425 1.644-7.261 3.014-3.836 1.37-7.809 2.603-2.192.548-5.206.548-3.014 0-4.521-.548l-2.329 5.754q-1.37 4.932-4.727 14.659-3.356 9.727-7.74 21.372Zm54.389 1.918q-1.096.411-2.946.274-1.849-.137-5-2.192-6.028-3.562-12.056-8.631-6.028-5.069-13.563-13.7-2.877-3.425-4.658-6.507-1.781-3.083-3.973-8.289l-1.918-7.398 4.247-2.466 5.206 4.932q2.192 4.795 5.548 9.179 3.357 4.384 6.371 7.809 2.466 2.877 6.713 6.919 4.247 4.041 9.042 7.74t8.631 5.617q.822.685.479 2.261-.342 1.575-.959 2.945-.616 1.37-1.164 1.507Zm-35.072-51.923q3.151-.274 7.192-1.644 4.042-1.37 8.289-3.151 3.973-1.918 8.288-4.452 4.316-2.535 7.946-5.617 3.631-3.083 5.823-6.508 2.192-3.425 1.918-6.987 0-1.781-1.302-3.767-1.301-1.987-3.151-3.631-1.849-1.644-3.63-2.192-5.48-1.37-8.768-1.712-3.288-.343-5.001.616-1.712.959-2.397 3.699 0 .411-1.096 2.672-1.096 2.26-2.672 5.685-1.575 3.425-3.082 7.261l-5.96 12.125q-1.986 4.041-2.466 5.548-.479 1.507.069 2.055Zm48.479 37.538q-.548-1.096-1.713-1.849-1.164-.754-1.164-1.302t-.274-1.37q-.274-.822-.822-1.37-.685-.822.205-3.836.891-3.014 2.946-7.466 2.055-4.453 4.658-9.248 1.096-1.096 2.192-2.877 1.096-1.781 1.644-2.329 0-.548.411-1.027.411-.48.959-.48l.274-1.233q.137-.685 1.507-2.329 1.37-1.644 3.288-3.63 1.918-1.987 4.041-3.836 2.124-1.85 3.494-2.672 2.877-1.918 5.959-2.123 3.083-.206 5.275 1.575.411.411 1.507 1.439 1.096 1.027 2.603 2.329 1.507 1.301 2.877 2.534l5.069 4.521-2.466 6.85q-1.781 5.48-.891 9.59.891 4.11 2.672 7.124.685 1.507 2.466 2.672 1.781 1.164 3.699 1.438 1.096.137 2.055.822.959.685.959 2.192 0 2.055-.754 3.083-.753 1.027-2.123 1.301-4.521.548-8.494-1.781-3.973-2.329-7.261-8.631-.548-.822-1.439-3.082-.89-2.261-1.027-2.946-.548.685-1.85 2.261-1.301 1.575-2.123 2.397-9.727 9.864-16.714 13.084-6.987 3.219-11.645.205Zm5.754-8.905q.274.685 2.945-.411 2.672-1.096 6.097-3.836 4.658-3.973 8.836-8.014 4.179-4.042 7.056-8.152l3.014-4.932q-1.37-3.151-2.809-4.247-1.438-1.096-2.534-1.096-1.781 0-4.932 2.946-3.151 2.945-6.85 8.014-3.699 5.069-7.261 11.645-1.507 2.877-2.535 5.48l-1.027 2.603Z" style="fill:#fff;pointer-events:none"/>
    <path d="M198.035 333.262q-1.096-1.096-1.576-2.945-.479-1.85-.342-3.631.137-1.781.685-2.877 0-1.096.342-1.712.343-.617.206-1.165-.137-.548.274-1.918.411-1.37.822-2.603.959-2.192 2.123-5.411 1.165-3.22 2.192-6.439 1.028-3.22 1.781-5.549.754-2.329.891-2.877 0-1.644 2.192-1.781 1.644-.548 2.945.411 1.302.959 2.672 3.151 1.096 1.096.822 3.151-.274 2.055-1.781 5.343-.548 1.096-1.302 3.288-.753 2.192-1.027 3.836-.548 1.096-1.302 3.083-.753 1.986-1.301 3.767-.274.685-.548 2.192-.274 1.507-.685 3.083-.411 1.575-1.096 2.671-1.233 5.617-2.946 6.576-1.712.959-4.041-1.644Zm13.837-55.348q-.959-.822-1.576-2.26-.616-1.439-.753-2.603-.137-1.165.274-1.302 1.233-.548 2.534-2.808 1.302-2.261 1.576-4.042.137-.548.548-1.096.411-.548.959-.685 1.644-1.096 3.699-.205 2.055.89 3.425 3.082 1.233 2.603.685 4.658t-3.014 5.069q-2.055 2.74-4.247 3.151-2.192.411-4.11-.959Z" style="fill:#fac710;pointer-events:none"/>
    <path d="M270.92 331.618q-2.74 0-4.589-1.164-1.85-1.165-3.083-4.042-.548-1.918-.753-4.315-.206-2.398-.137-4.59.068-2.192.342-3.151.411-.548.343-1.781-.069-1.233-.069-2.466-.137-2.603-1.164-2.945-1.028-.343-3.083.616-2.603 1.507-6.37 3.973-3.768 2.466-7.878 5.412-4.11 2.945-7.946 6.233-3.014 3.288-3.904 5.138-.891 1.849-2.124 1.849-1.096.548-1.986-.068-.891-.617-2.261-1.713-.959-1.096-2.055-2.329t-1.37-1.781q0-1.233.411-3.288.411-2.055 1.028-4.11.616-2.055 1.164-3.425.685-.274 1.165-1.507.479-1.233 1.438-2.74.411-1.781 1.507-4.452 1.096-2.672 2.055-4.864 1.781-3.425 2.535-5.754.753-2.329 1.164-5.48-.137-.548.206-1.027.342-.48.89-.48h.137q1.096-.959 2.946-.479 1.849.479 3.219 1.849 2.603 3.014 2.192 6.713-.411 3.699-4.384 10.138-.959 2.192-1.575 3.562-.617 1.37-.617 2.055l1.302-.89q1.301-.891 3.014-2.192 1.712-1.302 2.808-1.987.685-.685 3.151-2.466 2.466-1.781 5.206-3.63 2.74-1.85 4.247-2.398 1.233-.685 2.809-1.37 1.575-.685 2.123-.685 1.233 0 3.014 1.096 1.781 1.096 3.357 2.535 1.575 1.438 1.849 2.534v1.233q0 .685.137 1.233.274 1.918.343 5.001.068 3.082-.069 5.754-.137 2.671-.822 3.767l.069.274q.068.274.479.411v.685q-.274.411-.068 1.507.205 1.096.89 2.398.685 1.301 1.37 2.397 1.096 1.644.274 3.22-.822 1.575-2.877 1.986Zm35.534 18.906q-2.603.411-5.343.274-2.74-.137-6.987-1.233-2.192-.685-3.083-1.644-.89-.959-2.945-3.562-1.37-2.192-1.918-4.247-.548-2.055.068-3.425.617-1.37 2.398-1.233.548 0 1.712.754 1.165.753 2.261 1.849 2.192 1.918 5.137 2.946 2.946 1.027 6.919.479 1.918-.411 4.589-.959 2.672-.548 5.275-1.37 2.603-.822 4.11-1.918 7.261-4.932 11.371-7.877l4.11-2.946q.274-.548 1.027-.89.754-.343 1.85-.754.822-.822 2.671-2.603 1.85-1.781 3.562-3.562 1.713-1.781 2.124-2.055.274-1.233.548-1.986.274-.754.274-1.576 1.096-1.096 2.945-4.589 1.85-3.494 3.768-7.809 1.918-4.316 2.74-7.878 1.781-8.905.959-15.344t-3.631-11.234q-2.808-4.795-7.192-8.494-1.507-1.233-4.179-2.671-2.671-1.439-5.48-2.603-2.808-1.165-4.932-1.85-2.123-.685-2.534-.548-.548.137-2.192 4.247-1.644 4.11-3.973 10.549l-4.932 13.632-4.932 13.631q-.822 2.603-1.781 5.48-.959 2.877-1.644 5.001-.685 2.123-.685 2.808-1.507 2.329-2.672 6.508-1.164 4.178-2.26 13.083-1.233 4.658-1.781 7.261-.548 2.603-1.096 2.466l-.069.48q-.068.479-.479.89 0 .822-1.302.959-1.301.137-3.014-.616-1.712-.754-2.808-2.261-.411-1.507-.548-3.356-.137-1.85.959-5.823.685-2.603 1.781-6.507 1.096-3.905 2.397-8.083 1.302-4.179 2.466-7.672 1.165-3.494 1.713-5.275.959-2.329 2.74-8.768 1.096-3.562 2.26-7.124 1.165-3.562 2.261-6.37 1.096-2.809 1.507-3.631.685-1.781 1.986-5.959 1.302-4.179 3.494-9.385l.959-4.521-1.507-.685q-1.644.548-2.535.343-.89-.206-1.164-.343-.822.274-2.261-.411-1.438-.685-2.603-1.849-1.164-1.165-1.438-1.987-.274-.548-.343-1.438l-.068-.891q.137-.822 2.192-1.644t5.274-1.438q3.22-.617 6.919-.891 3.699-.274 7.124 0 3.562.274 7.398 1.576 3.836 1.301 7.535 2.671 4.384 1.644 9.316 5.617t9.042 9.453q4.11 5.48 5.48 11.508.411 1.644.822 4.658.411 3.014.479 5.823.069 2.808-.616 3.63-.274.548-.343 1.302-.068.753.48 1.027-.137.411-.959 3.083-.822 2.671-1.507 4.589-.274 3.562-1.713 7.672-1.438 4.11-3.151 7.741-1.712 3.63-3.082 5.959-.548 0-1.028.206-.479.205.069.342 0 .685-1.507 2.603-.548.411-1.713 1.987-1.164 1.575-1.849 2.123-.137.959-.822 1.576-.685.616-1.233.616h-.206q-.205 0-.205.548-1.096 1.644-3.494 4.042-2.397 2.397-5.48 4.932-3.082 2.534-6.233 4.658-3.151 2.123-5.891 3.219-1.37.959-2.877 1.576-1.507.616-2.877 1.301-.685.548-3.357 1.37-2.671.822-5.617 1.576-2.945.753-5 1.164Zm64.798-17.81q-.548-1.096-1.712-1.849-1.165-.754-1.165-1.302t-.274-1.37q-.274-.822-.822-1.37-.685-.822.206-3.836.89-3.014 2.945-7.466 2.055-4.453 4.658-9.248 1.096-1.096 2.192-2.877 1.096-1.781 1.644-2.329 0-.548.411-1.027.411-.48.959-.48l.274-1.233q.137-.685 1.507-2.329 1.37-1.644 3.288-3.63 1.918-1.987 4.042-3.836 2.123-1.85 3.493-2.672 2.877-1.918 5.96-2.123 3.082-.206 5.274 1.575.411.411 1.507 1.439 1.096 1.027 2.603 2.329 1.507 1.301 2.877 2.534l5.069 4.521-2.466 6.85q-1.781 5.48-.89 9.59.89 4.11 2.671 7.124.685 1.507 2.466 2.672 1.781 1.164 3.699 1.438 1.096.137 2.055.822.959.685.959 2.192 0 2.055-.753 3.083-.754 1.027-2.124 1.301-4.521.548-8.494-1.781-3.973-2.329-7.261-8.631-.548-.822-1.438-3.082-.891-2.261-1.028-2.946-.548.685-1.849 2.261-1.302 1.575-2.124 2.397-9.727 9.864-16.714 13.084-6.987 3.219-11.645.205Zm5.754-8.905q.274.685 2.946-.411 2.671-1.096 6.096-3.836 4.658-3.973 8.837-8.014 4.178-4.042 7.055-8.152l3.014-4.932q-1.37-3.151-2.808-4.247-1.439-1.096-2.535-1.096-1.781 0-4.932 2.946-3.151 2.945-6.85 8.014-3.699 5.069-7.261 11.645-1.507 2.877-2.534 5.48l-1.028 2.603Zm63.159 12.604q-1.507-.274-3.151-1.712-1.644-1.439-2.877-3.22-1.233-1.781-1.644-3.151 0-.274-.343-.685l-.342-.411q-.548-.411-.617-3.63-.068-3.22.343-7.193.411-3.973.959-6.302.685-2.192 2.055-5.959 1.37-3.768 2.329-6.782l3.699-7.946-5.48-1.507q-.959-.274-1.576-1.096-.616-.822-.616-1.37 0-1.096 1.233-2.808 1.233-1.713 1.781-1.713.685.137 2.534.137 1.85 0 3.631-.137 1.781-.137 2.192-.274.548-.274 1.096-.753.548-.48.822-1.439.685-1.507 1.233-2.671.548-1.165 1.507-2.809.959-1.781 1.575-3.014.617-1.233 1.987-3.425.685-.959 1.507-2.329.822-1.37 2.055-2.329 1.233-1.096 3.014-1.233 1.781-.137 3.836 1.644 1.096 1.37 1.233 2.261.137.89-1.096 2.808-1.096 2.329-2.535 4.521-1.438 2.192-2.671 4.521-2.192 3.014-.822 3.425 1.37.411 7.672-.548 3.973-.685 5.754.48 1.781 1.164 2.055 3.493.411 3.288-.685 3.973t-6.302.685q-3.288.548-5.617.617-2.329.068-3.425.068-1.781.137-2.329.137-.548 0-1.644.274-1.096.274-1.576.891-.479.616-1.027 1.712-.548.548-1.644 2.877-1.096 2.329-2.74 5.069-1.918 5.754-3.22 11.303-1.301 5.548-2.26 10.891-.411 3.151.205 4.384.617 1.233 3.494 1.507 1.507.137 4.726-.068 3.22-.206 5.138-.754 1.507-.685 3.151-1.438 1.644-.754 3.014-1.576 1.233-.685 2.466-1.438l1.233-.754q.685-1.096 1.644-.342.959.753 1.507 2.397 0 1.644-.685 3.562t-5.069 4.384q-6.165 3.836-11.645 4.658-5.48.822-9.042.137Zm59.866-3.562q-3.288 2.466-7.33 2.809-4.041.342-7.74-1.233-3.699-1.576-6.165-4.727-1.918-2.603-2.809-6.507-.89-3.905-.205-10.344.548-5.754 3.562-11.508t7.398-10.206q4.384-4.453 9.042-6.097 1.918-1.233 3.562-1.301 1.644-.069 4.795.205 3.151.411 5 1.37 1.85.959 2.809 2.329 2.192 2.055 2.877 4.11.685 2.055.548 3.973-.548 3.425-3.973 8.015-3.425 4.589-9.042 7.192-2.74.959-6.165.959t-6.85-1.507q-2.877-.959-3.768.48-.89 1.438-1.301 6.37-.274 4.384.959 6.576 1.233 2.192 3.562 2.74 2.877.548 4.384.48 1.507-.069 3.836-1.302 1.781-1.096 2.466-1.507.685-.411 1.301-.89.617-.48 1.713-1.576.822-.822 1.438-1.164.617-.343 1.302-.343.959 0 1.781.891.822.89 1.37 1.575.822.411-.137 2.124-.959 1.712-3.151 3.973-2.192 2.26-5.069 4.041Zm-.685-29.592q1.233-.548 2.945-1.918 1.713-1.37 3.014-3.014 1.302-1.644 1.302-2.603 0-1.781-1.85-3.014-1.849-1.233-5.274-.411-1.37.411-3.151 1.85-1.781 1.438-3.425 3.219t-2.672 3.288q-1.027 1.507-1.027 1.918.411.685 2.26 1.096 1.85.411 4.11.274 2.261-.137 3.768-.685Z" style="fill:#fff;pointer-events:none"/>
</svg>
